<?xml version="1.0" encoding="UTF-8" standalone="no"?>
<svg width="41px" height="31px" viewBox="0 0 41 31" version="1.1" xmlns="http://www.w3.org/2000/svg" xmlns:xlink="http://www.w3.org/1999/xlink" xmlns:sketch="http://www.bohemiancoding.com/sketch/ns">
    <!-- Generator: Sketch 3.4.2 (15857) - http://www.bohemiancoding.com/sketch -->
    <title>Shape + Path + Rectangle 34</title>
    <desc>Created with Sketch.</desc>
    <defs></defs>
    <g id="Page-1" stroke="none" stroke-width="1" fill="none" fill-rule="evenodd" sketch:type="MSPage">
        <g id="iPhone-6-Copy-2" sketch:type="MSArtboardGroup" transform="translate(-291.000000, -614.000000)" fill="#447187">
            <g id="Keypad-+-Keys" sketch:type="MSLayerGroup" transform="translate(0.000000, 373.000000)">
                <g id="Keys" transform="translate(34.662500, 12.323353)" sketch:type="MSShapeGroup">
                    <g id="Shape-+-Path-+-Rectangle-34" transform="translate(256.150000, 229.449102)">
                        <path d="M3.63179267,17.3410467 C2.25893197,15.8805705 2.33228013,13.5807613 3.79488149,12.2078695 L13.1920874,3.38704698 C14.1042922,2.53079285 15.9180293,1.81205284 17.166014,1.81205284 L33.1611418,1.81205284 C36.0951548,1.81205284 38.4731858,4.19008235 38.4731858,7.1255269 L38.4731858,22.2157905 C38.4731858,25.1513015 36.0920719,27.5292645 33.1506047,27.5292645 L15.4896095,27.5292645 C14.2489987,27.5292645 12.4976331,26.7727018 11.6473147,25.8681165 L3.63179267,17.3410467 M1.93471771,18.2769861 L10.348192,27.2274053 C11.4628984,28.4132518 13.6112756,29.3413174 15.2378421,29.3413174 L33.775665,29.3413174 C37.5120574,29.3413174 40.5375,26.3198782 40.5375,22.5903889 L40.5375,6.75092849 C40.5375,3.02185649 37.5156417,0 33.7867253,0 L16.9974762,0 C15.3883119,0 13.1968289,0.868431541 12.0216015,1.9715757 L2.15784587,11.2303317 C0.150101586,13.1149298 0.0494323673,16.2713826 1.93471771,18.2769861" id="Shape"></path>
                        <path d="M23.1672818,15.258721 L18.32307,20.1029328 C17.9437712,20.4822316 17.9465148,21.1004085 18.3294869,21.4833806 C18.715129,21.8690227 19.3305065,21.8692256 19.7099347,21.4897975 L24.5541464,16.6455857 L29.3967638,21.488203 C29.7760626,21.8675019 30.3942394,21.8647583 30.7772115,21.4817862 C31.1628536,21.096144 31.1630566,20.4807665 30.7836284,20.1013384 L25.9440196,15.2617296 L30.7843705,10.4153617 C31.1636693,10.0360628 31.1609257,9.41788599 30.7779536,9.03491389 C30.3923115,8.64927178 29.776934,8.64906886 29.3975058,9.02849701 L24.5541464,13.8718564 C22.2712384,11.5889484 19.7091926,9.02690258 19.7091926,9.02690258 C19.3298938,8.64760375 18.7117169,8.65034736 18.3287448,9.03331946 C17.9431027,9.41896158 17.9428998,10.0343391 18.322328,10.4137672 L23.1672818,15.258721 L23.1672818,15.258721 Z" id="Path"></path>
                    </g>
                </g>
            </g>
        </g>
    </g>
</svg>