<?xml version="1.0" encoding="UTF-8" standalone="no"?>
<svg width="130px" height="130px" viewBox="0 0 130 130" version="1.1" xmlns="http://www.w3.org/2000/svg" xmlns:xlink="http://www.w3.org/1999/xlink" xmlns:sketch="http://www.bohemiancoding.com/sketch/ns">
    <!-- Generator: Sketch 3.4.2 (15857) - http://www.bohemiancoding.com/sketch -->
    <title>Checkem Copy</title>
    <desc>Created with Sketch.</desc>
    <defs></defs>
    <g id="Page-1" stroke="none" stroke-width="1" fill="none" fill-rule="evenodd" sketch:type="MSPage">
        <g id="iPhone-6-Copy-8" sketch:type="MSArtboardGroup" transform="translate(-123.000000, -78.000000)" fill="#FFFFFF">
            <g id="Checkem-Copy" sketch:type="MSLayerGroup" transform="translate(123.000000, 78.000000)">
                <path d="M65,130 C100.898509,130 130,100.898509 130,65 C130,29.1014913 100.898509,0 65,0 C29.1014913,0 0,29.1014913 0,65 C0,100.898509 29.1014913,130 65,130 L65,130 Z M65,120 C34.6243388,120 10,95.3756612 10,65 C10,34.6243388 34.6243388,10 65,10 C95.3756612,10 120,34.6243388 120,65 C120,95.3756612 95.3756612,120 65,120 L65,120 Z" id="Shape" sketch:type="MSShapeGroup"></path>
                <g id="Path-33-+-Path-33" transform="translate(37.000000, 36.000000)" sketch:type="MSShapeGroup">
                    <path d="M28.6529805,35.9557253 L7.3038569,57.304849 L0.232789088,50.2337812 L21.5819127,28.8846575 L0.232789088,7.53553391 L7.3038569,0.464466094 L28.6529805,21.8135897 L50.0021042,0.464466094 L57.073172,7.53553391 L35.7240483,28.8846575 L57.073172,50.2337812 L50.0021042,57.304849 L28.6529805,35.9557253 Z" id="Shape"></path>
                </g>
            </g>
        </g>
    </g>
</svg>